<svg height="85" viewBox="0 0 85 85" width="85" xmlns="http://www.w3.org/2000/svg">
    <g id="pro_faq" transform="translate(-110 -1709)">
        <rect data-name="Rectangle 2666" fill="none" height="85" id="Rectangle_2666" rx="16"
            transform="translate(110 1709)" width="85" />
        <g id="chat" transform="translate(110 1714.5)">
            <path
                d="M275.066,224.38l-.011-.033-3.376-10.259V188.967a7.479,7.479,0,0,0-7.471-7.471H242.4V193.72a12.465,12.465,0,0,1-12.451,12.451h-1.766v12.014a7.479,7.479,0,0,0,7.471,7.471H261L267.522,230a4.922,4.922,0,0,0,5.76-.125A4.922,4.922,0,0,0,275.066,224.38Zm-16.951-8.847a2.49,2.49,0,0,1-3.209-1.451l-1.084-2.873h-7.58l-1.1,2.88a2.49,2.49,0,0,1-4.654-1.773l6.858-18.005.022-.057a2.9,2.9,0,0,1,5.374-.005l.027.068,6.8,18.006A2.49,2.49,0,0,1,258.116,215.534Z"
                data-name="Path 6277" fill="#fc6a57" id="Path_6277"
                transform="translate(-190.303 -156.865)" />
            <path d="M348.384,305.278h3.8l-1.893-5.017Z" data-name="Path 6278" fill="#fc6a57"
                id="Path_6278" transform="translate(-290.548 -255.913)" />
            <path
                d="M39.648,33.126H11.094A7.479,7.479,0,0,0,3.623,40.6V65.885L.247,76.145l-.011.034a4.922,4.922,0,0,0,1.785,5.49,4.921,4.921,0,0,0,5.758.125L14.3,77.452H39.648a7.479,7.479,0,0,0,7.471-7.471V40.6A7.479,7.479,0,0,0,39.648,33.126ZM35.764,66.352a2.49,2.49,0,0,1-3.521,0l-1.09-1.091a11.631,11.631,0,1,1,3.49-3.553l1.122,1.122A2.491,2.491,0,0,1,35.764,66.352Z"
                data-name="Path 6279" fill="#fc6a57" id="Path_6279"
                transform="translate(0 -33.126)" />
            <path
                d="M116.088,128.157a6.636,6.636,0,1,0,2.688,12.7l-1.091-1.091a2.49,2.49,0,0,1,3.522-3.522l1.033,1.033a6.632,6.632,0,0,0-6.151-9.121Z"
                data-name="Path 6280" fill="#fc6a57" id="Path_6280"
                transform="translate(-91.282 -112.381)" />
        </g>
    </g>
</svg>
